# xmcd CD database file
#
# Track frame offsets:
#	150
#	30442
#	71131
#	102954
#	137568
#	169333
#	206786
#	233820
#	259536
#
# Disc length: 3690 seconds
#
# Revision: 0
# Processed by: cddbd v1.5PL3 Copyright (c) Steve Scherf et al.
# Submitted via: CDex 1.51
#
DISCID=7b0e6809
DTITLE=WILLIE ROSARIO and ORQUESTA en vivo!  - DESDE CALI PARA EL MUNDO CD2
DYEAR=1900
DGENRE=Salsa
TTITLE0=LA VIDA
TTITLE1=CHACHARICHA
TTITLE2=ANUNCIO CLASIFICADO
TTITLE3=POCO A POCO
TTITLE4=RECORDANDO A MIGUELITO VALDES
TTITLE5=TU ERES UNA BOMBA
TTITLE6=NICOLAS
TTITLE7=BOBA
TTITLE8=HISTORIA MUSICAL/DESPEDIDA
EXTD=
EXTT0=
EXTT1=
EXTT2=
EXTT3=
EXTT4=
EXTT5=
EXTT6=
EXTT7=
EXTT8=
PLAYORDER=
